<?xml version="1.0" standalone="no"?>
<!DOCTYPE svg PUBLIC "-//W3C//DTD SVG 20010904//EN"
 "http://www.w3.org/TR/2001/REC-SVG-20010904/DTD/svg10.dtd">
<svg version="1.0" xmlns="http://www.w3.org/2000/svg"
 width="858.000000pt" height="392.000000pt" viewBox="0 0 858.000000 392.000000"
 preserveAspectRatio="xMidYMid meet">

<g transform="translate(0.000000,392.000000) scale(0.100000,-0.100000)"
fill="#000000" stroke="none">
<path d="M0 1960 l0 -1960 4280 0 4280 0 0 1960 0 1960 -4280 0 -4280 0 0
-1960z m3992 806 c48 -20 86 -62 98 -107 7 -25 10 -199 8 -487 -3 -426 -4
-449 -23 -480 -11 -19 -37 -44 -58 -57 l-38 -22 35 -22 c20 -13 46 -37 58 -54
23 -31 23 -38 26 -344 3 -336 -1 -373 -45 -417 -52 -52 -75 -56 -339 -56 -231
0 -245 1 -264 20 -20 20 -20 33 -20 1010 0 977 0 990 20 1010 19 19 33 20 264
20 188 0 251 -3 278 -14z m848 -6 c22 -11 51 -37 65 -57 l25 -38 0 -954 c0
-874 -1 -956 -17 -973 -13 -14 -31 -18 -90 -18 -120 0 -113 -25 -113 388 0
298 -2 351 -16 370 -14 21 -22 22 -155 22 -76 0 -139 -2 -139 -3 0 -2 18 -22
39 -45 29 -30 41 -53 46 -84 3 -24 5 -173 3 -331 -4 -337 4 -317 -114 -317
-66 0 -74 2 -93 26 -21 27 -21 31 -21 958 0 882 1 933 19 971 20 44 49 74 89
92 18 7 97 12 230 12 184 1 206 -1 242 -19z m822 6 c47 -20 86 -62 98 -106 7
-25 9 -362 8 -974 -3 -1079 10 -965 -115 -966 -66 0 -73 2 -92 26 -20 26 -21
38 -21 377 0 321 -1 351 -17 363 -13 10 -57 13 -158 14 l-139 0 36 -37 c20
-21 41 -48 47 -60 7 -15 11 -123 11 -334 0 -371 7 -349 -108 -349 -125 0 -112
-114 -112 983 l0 950 25 42 c16 28 39 50 67 64 39 19 60 21 239 21 148 0 205
-4 231 -14z m853 -9 c22 -12 50 -38 62 -56 l23 -34 0 -415 c0 -402 -1 -416
-21 -448 -11 -19 -35 -44 -52 -56 -30 -22 -44 -23 -250 -28 l-219 -5 32 -23
c66 -49 70 -72 70 -412 l0 -306 29 -17 c48 -28 161 -18 183 16 4 7 8 46 8 88
0 97 7 104 110 104 112 0 110 3 110 -180 0 -141 -2 -154 -23 -186 -12 -19 -42
-44 -67 -56 -41 -22 -57 -23 -241 -23 -218 0 -247 6 -292 60 -15 17 -31 47
-37 68 -16 60 -13 937 4 985 33 92 72 109 264 116 120 5 155 9 162 21 11 18
13 540 2 556 -17 26 -56 34 -166 34 -63 0 -121 -2 -128 -5 -10 -4 -2 -18 28
-50 64 -66 72 -145 17 -166 -13 -5 -51 -9 -84 -9 -50 0 -64 4 -84 25 -24 23
-25 30 -25 142 0 134 10 179 47 223 45 54 68 58 293 59 195 1 207 0 245 -22z
m457 6 c17 -15 18 -60 18 -1011 0 -912 -1 -997 -17 -1014 -13 -14 -31 -18 -91
-18 -125 0 -112 -121 -112 1028 0 912 1 997 17 1014 22 25 157 26 185 1z"/>
<path d="M3572 2551 c-11 -7 -11 -9 2 -14 8 -3 29 -25 46 -48 l30 -42 0 -333
c0 -230 4 -341 12 -358 7 -18 22 -28 45 -32 51 -10 143 1 154 17 5 8 9 188 9
401 l0 387 -22 15 c-17 12 -50 16 -143 16 -66 0 -126 -4 -133 -9z"/>
<path d="M3592 1463 c20 -21 41 -48 47 -60 7 -14 11 -93 11 -218 0 -195 0
-196 25 -220 20 -21 34 -25 87 -25 112 0 108 -11 108 280 0 213 -2 251 -16
264 -13 13 -42 16 -157 16 l-141 0 36 -37z"/>
<path d="M4404 2554 c-5 -2 9 -24 31 -48 24 -24 45 -57 48 -76 4 -18 7 -176 7
-351 0 -378 -6 -359 110 -359 117 0 110 -28 110 420 0 462 17 420 -169 419
-69 0 -131 -3 -137 -5z"/>
<path d="M5243 2552 c-9 -6 -7 -12 8 -22 12 -8 32 -32 45 -52 l24 -38 0 -339
0 -340 26 -20 c34 -26 137 -30 172 -5 l22 15 0 389 0 389 -22 15 c-17 12 -50
16 -143 16 -66 0 -126 -4 -132 -8z"/>
</g>
</svg>
